<svg width="12" height="20" viewBox="0 0 12 20" fill="none" xmlns="http://www.w3.org/2000/svg">
<path d="M1.48328 3.53343L7.94995 10.0001L1.48328 16.4668C1.32898 16.6211 1.20658 16.8043 1.12307 17.0059C1.03956 17.2075 0.996582 17.4235 0.996582 17.6418C0.996582 17.86 1.03956 18.0761 1.12307 18.2777C1.20658 18.4793 1.32898 18.6625 1.48328 18.8168C1.63759 18.9711 1.82077 19.0935 2.02238 19.177C2.22398 19.2605 2.44007 19.3035 2.65828 19.3035C2.8765 19.3035 3.09258 19.2605 3.29419 19.177C3.4958 19.0935 3.67898 18.9711 3.83328 18.8168L11.4833 11.1668C12.1333 10.5168 12.1333 9.46677 11.4833 8.81676L3.83328 1.16677C3.67909 1.01226 3.49595 0.889681 3.29432 0.806046C3.0927 0.722408 2.87656 0.679359 2.65828 0.679359C2.44 0.679359 2.22387 0.722408 2.02224 0.806046C1.82062 0.889681 1.63747 1.01226 1.48328 1.16677C0.84995 1.81677 0.833283 2.88343 1.48328 3.53343Z" fill="#4F4F4F"/>
</svg>
