<svg width="36" height="32" viewBox="0 0 36 32" fill="none" xmlns="http://www.w3.org/2000/svg">
<path d="M9.6665 6.83325V3.49992C9.6665 2.57944 10.4127 1.83325 11.3332 1.83325H32.9998C33.9203 1.83325 34.6665 2.57944 34.6665 3.49992V18.4999C34.6665 19.4204 33.9203 20.1666 32.9998 20.1666H31.3332" fill="#0055D4"/>
<path d="M9.6665 6.83325V3.49992C9.6665 2.57944 10.4127 1.83325 11.3332 1.83325H32.9998C33.9203 1.83325 34.6665 2.57944 34.6665 3.49992V18.4999C34.6665 19.4204 33.9203 20.1666 32.9998 20.1666H31.3332" stroke="#0055D4" stroke-width="2" stroke-linecap="round" stroke-linejoin="round"/>
<path d="M24.6666 11.8333H2.99992C2.07944 11.8333 1.33325 12.5794 1.33325 13.4999V28.4999C1.33325 29.4204 2.07944 30.1666 2.99992 30.1666H24.6666C25.5871 30.1666 26.3333 29.4204 26.3333 28.4999V13.4999C26.3333 12.5794 25.5871 11.8333 24.6666 11.8333Z" fill="#0055D4" stroke="#0055D4" stroke-width="2" stroke-linecap="round" stroke-linejoin="round"/>
<path d="M1.33325 19.3333H26.3333H1.33325Z" fill="#0055D4"/>
<path d="M1.33325 19.3333H26.3333" stroke="white" stroke-width="2" stroke-linecap="round" stroke-linejoin="round"/>
<path d="M26.3333 15.1665V25.1665V15.1665Z" fill="#0055D4"/>
<path d="M26.3333 15.1665V25.1665" stroke="#0055D4" stroke-width="2" stroke-linecap="round" stroke-linejoin="round"/>
<path d="M1.33325 15.1665V25.1665V15.1665Z" fill="#0055D4"/>
<path d="M1.33325 15.1665V25.1665" stroke="#0055D4" stroke-width="2" stroke-linecap="round" stroke-linejoin="round"/>
<path d="M7.1665 24.3333H13.8332" stroke="white" stroke-width="2" stroke-linecap="round" stroke-linejoin="round"/>
<path d="M18.8333 24.3333H20.4999" stroke="white" stroke-width="2" stroke-linecap="round" stroke-linejoin="round"/>
</svg>
