<svg width="40" height="40" viewBox="0 0 40 40" fill="none" xmlns="http://www.w3.org/2000/svg">
<path d="M7 8C6.20435 8 5.44129 8.31607 4.87868 8.87868C4.31607 9.44129 4 10.2044 4 11V29C4 29.7956 4.31607 30.5587 4.87868 31.1213C5.44129 31.6839 6.20435 32 7 32H33C33.7956 32 34.5587 31.6839 35.1213 31.1213C35.6839 30.5587 36 29.7956 36 29V11C36 10.2044 35.6839 9.44129 35.1213 8.87868C34.5587 8.31607 33.7956 8 33 8H7ZM13 20C12.2044 20 11.4413 19.6839 10.8787 19.1213C10.3161 18.5587 10 17.7956 10 17C10 16.2044 10.3161 15.4413 10.8787 14.8787C11.4413 14.3161 12.2044 14 13 14C13.7956 14 14.5587 14.3161 15.1213 14.8787C15.6839 15.4413 16 16.2044 16 17C16 17.7956 15.6839 18.5587 15.1213 19.1213C14.5587 19.6839 13.7956 20 13 20ZM9.898 21.5H16.1C16.6032 21.5005 17.0857 21.7007 17.4415 22.0565C17.7973 22.4123 17.9975 22.8948 17.998 23.398C17.998 25.092 16.844 26.568 15.2 26.98L15.082 27.01C13.714 27.35 12.282 27.35 10.914 27.01L10.794 26.98C9.99565 26.7798 9.28708 26.3186 8.78086 25.6696C8.27465 25.0206 7.9998 24.2211 8 23.398C8.00053 22.8948 8.20067 22.4123 8.5565 22.0565C8.91232 21.7007 9.39478 21.5005 9.898 21.5ZM22 17C22 16.7348 22.1054 16.4804 22.2929 16.2929C22.4804 16.1054 22.7348 16 23 16H29C29.2652 16 29.5196 16.1054 29.7071 16.2929C29.8946 16.4804 30 16.7348 30 17C30 17.2652 29.8946 17.5196 29.7071 17.7071C29.5196 17.8946 29.2652 18 29 18H23C22.7348 18 22.4804 17.8946 22.2929 17.7071C22.1054 17.5196 22 17.2652 22 17ZM23 22H29C29.2652 22 29.5196 22.1054 29.7071 22.2929C29.8946 22.4804 30 22.7348 30 23C30 23.2652 29.8946 23.5196 29.7071 23.7071C29.5196 23.8946 29.2652 24 29 24H23C22.7348 24 22.4804 23.8946 22.2929 23.7071C22.1054 23.5196 22 23.2652 22 23C22 22.7348 22.1054 22.4804 22.2929 22.2929C22.4804 22.1054 22.7348 22 23 22Z" fill="#0055D4"/>
</svg>
