<svg width="32" height="24" viewBox="0 0 32 24" fill="none" xmlns="http://www.w3.org/2000/svg">
<path d="M3 0C2.20435 0 1.44129 0.31607 0.87868 0.878679C0.316071 1.44129 0 2.20435 0 3V21C0 21.7956 0.316071 22.5587 0.87868 23.1213C1.44129 23.6839 2.20435 24 3 24H29C29.7956 24 30.5587 23.6839 31.1213 23.1213C31.6839 22.5587 32 21.7956 32 21V3C32 2.20435 31.6839 1.44129 31.1213 0.878679C30.5587 0.31607 29.7956 0 29 0H3ZM9 12C8.20435 12 7.44129 11.6839 6.87868 11.1213C6.31607 10.5587 6 9.79565 6 9C6 8.20435 6.31607 7.44129 6.87868 6.87868C7.44129 6.31607 8.20435 6 9 6C9.79565 6 10.5587 6.31607 11.1213 6.87868C11.6839 7.44129 12 8.20435 12 9C12 9.79565 11.6839 10.5587 11.1213 11.1213C10.5587 11.6839 9.79565 12 9 12ZM5.898 13.5H12.1C12.6032 13.5005 13.0857 13.7007 13.4415 14.0565C13.7973 14.4123 13.9975 14.8948 13.998 15.398C13.998 17.092 12.844 18.568 11.2 18.98L11.082 19.01C9.714 19.35 8.282 19.35 6.914 19.01L6.794 18.98C5.99565 18.7798 5.28708 18.3186 4.78086 17.6696C4.27465 17.0206 3.99981 16.2211 4 15.398C4.00053 14.8948 4.20067 14.4123 4.5565 14.0565C4.91233 13.7007 5.39478 13.5005 5.898 13.5V13.5ZM18 9C18 8.73478 18.1054 8.48043 18.2929 8.29289C18.4804 8.10536 18.7348 8 19 8H25C25.2652 8 25.5196 8.10536 25.7071 8.29289C25.8946 8.48043 26 8.73478 26 9C26 9.26522 25.8946 9.51957 25.7071 9.70711C25.5196 9.89464 25.2652 10 25 10H19C18.7348 10 18.4804 9.89464 18.2929 9.70711C18.1054 9.51957 18 9.26522 18 9ZM19 14H25C25.2652 14 25.5196 14.1054 25.7071 14.2929C25.8946 14.4804 26 14.7348 26 15C26 15.2652 25.8946 15.5196 25.7071 15.7071C25.5196 15.8946 25.2652 16 25 16H19C18.7348 16 18.4804 15.8946 18.2929 15.7071C18.1054 15.5196 18 15.2652 18 15C18 14.7348 18.1054 14.4804 18.2929 14.2929C18.4804 14.1054 18.7348 14 19 14Z" fill="#0055D4"/>
</svg>
