<svg width="40" height="40" viewBox="0 0 40 40" fill="none" xmlns="http://www.w3.org/2000/svg">
<path fill-rule="evenodd" clip-rule="evenodd" d="M19.9999 34.9999C28.2841 34.9999 34.9999 28.2841 34.9999 19.9999C34.9999 11.7158 28.2841 4.99992 19.9999 4.99992C11.7158 4.99992 4.99992 11.7158 4.99992 19.9999C4.99992 28.2841 11.7158 34.9999 19.9999 34.9999ZM19.9999 36.6666C29.2049 36.6666 36.6666 29.2049 36.6666 19.9999C36.6666 10.7949 29.2049 3.33325 19.9999 3.33325C10.7949 3.33325 3.33325 10.7949 3.33325 19.9999C3.33325 29.2049 10.7949 36.6666 19.9999 36.6666Z" fill="#0055D4"/>
<path d="M10 29.6915C10 28.8306 10.6433 28.1031 11.5 28.0081C17.9292 27.2965 22.1 27.3606 28.515 28.024C28.8353 28.0576 29.139 28.1838 29.3888 28.3872C29.6385 28.5905 29.8237 28.8622 29.9216 29.1691C30.0196 29.4759 30.026 29.8047 29.9402 30.1151C29.8544 30.4256 29.68 30.7043 29.4383 30.9173C21.8675 37.5165 17.5408 37.4256 10.5333 30.924C10.1917 30.6073 10 30.1573 10 29.6923V29.6915Z" fill="#0055D4"/>
<path fill-rule="evenodd" clip-rule="evenodd" d="M28.429 28.8523C22.0648 28.194 17.954 28.1323 11.5907 28.8365C11.3812 28.8609 11.1881 28.9617 11.0483 29.1196C10.9086 29.2775 10.832 29.4814 10.8332 29.6923C10.8332 29.9307 10.9323 30.1565 11.0998 30.3131C14.5732 33.5348 17.2048 34.9907 19.7773 34.9998C22.359 35.009 25.1323 33.5648 28.8907 30.2898C29.0101 30.1835 29.096 30.0449 29.1381 29.8907C29.1802 29.7365 29.1765 29.5733 29.1276 29.4212C29.0787 29.269 28.9867 29.1343 28.8626 29.0335C28.7386 28.9326 28.588 28.87 28.429 28.8532V28.8523ZM11.4082 27.1798C17.9048 26.4607 22.1365 26.5256 28.6015 27.1948C29.0834 27.2451 29.5402 27.4348 29.916 27.7408C30.2917 28.0467 30.5701 28.4555 30.7171 28.9172C30.8641 29.3789 30.8733 29.8735 30.7435 30.3403C30.6137 30.8071 30.3507 31.226 29.9865 31.5456C26.174 34.869 22.999 36.679 19.7723 36.6665C16.5365 36.6548 13.5015 34.814 9.96734 31.5348C9.7143 31.2991 9.51259 31.0138 9.37479 30.6966C9.237 30.3795 9.1661 30.0373 9.16651 29.6915C9.16529 29.0702 9.39334 28.4703 9.80698 28.0066C10.2206 27.543 10.7907 27.2483 11.4082 27.179V27.1798Z" fill="#0055D4"/>
<path d="M26.6666 16.6667C26.6666 18.4348 25.9642 20.1305 24.714 21.3807C23.4637 22.631 21.768 23.3333 19.9999 23.3333C18.2318 23.3333 16.5361 22.631 15.2859 21.3807C14.0356 20.1305 13.3333 18.4348 13.3333 16.6667C13.3333 14.8986 14.0356 13.2029 15.2859 11.9526C16.5361 10.7024 18.2318 10 19.9999 10C21.768 10 23.4637 10.7024 24.714 11.9526C25.9642 13.2029 26.6666 14.8986 26.6666 16.6667Z" fill="#0055D4"/>
<path fill-rule="evenodd" clip-rule="evenodd" d="M19.9999 21.6667C21.326 21.6667 22.5978 21.1399 23.5355 20.2022C24.4731 19.2645 24.9999 17.9927 24.9999 16.6667C24.9999 15.3406 24.4731 14.0688 23.5355 13.1311C22.5978 12.1935 21.326 11.6667 19.9999 11.6667C18.6738 11.6667 17.4021 12.1935 16.4644 13.1311C15.5267 14.0688 14.9999 15.3406 14.9999 16.6667C14.9999 17.9927 15.5267 19.2645 16.4644 20.2022C17.4021 21.1399 18.6738 21.6667 19.9999 21.6667ZM19.9999 23.3333C21.768 23.3333 23.4637 22.631 24.714 21.3807C25.9642 20.1305 26.6666 18.4348 26.6666 16.6667C26.6666 14.8986 25.9642 13.2029 24.714 11.9526C23.4637 10.7024 21.768 10 19.9999 10C18.2318 10 16.5361 10.7024 15.2859 11.9526C14.0356 13.2029 13.3333 14.8986 13.3333 16.6667C13.3333 18.4348 14.0356 20.1305 15.2859 21.3807C16.5361 22.631 18.2318 23.3333 19.9999 23.3333Z" fill="#0055D4"/>
</svg>
