<svg width="20" height="18" viewBox="0 0 20 18" fill="none" xmlns="http://www.w3.org/2000/svg">
<path d="M5.5 9C5.5 8.80109 5.57902 8.61032 5.71967 8.46967C5.86032 8.32902 6.05109 8.25 6.25 8.25H13V3.375C13 1.875 11.4161 0.75 10 0.75H2.875C2.17904 0.750744 1.51179 1.02755 1.01967 1.51967C0.527545 2.01179 0.250744 2.67904 0.25 3.375V14.625C0.250744 15.321 0.527545 15.9882 1.01967 16.4803C1.51179 16.9725 2.17904 17.2493 2.875 17.25H10.375C11.071 17.2493 11.7382 16.9725 12.2303 16.4803C12.7225 15.9882 12.9993 15.321 13 14.625V9.75H6.25C6.05109 9.75 5.86032 9.67098 5.71967 9.53033C5.57902 9.38968 5.5 9.19891 5.5 9ZM19.5302 8.46984L15.7802 4.71984C15.6384 4.58513 15.4495 4.51114 15.254 4.51364C15.0584 4.51614 14.8715 4.59495 14.7332 4.73325C14.5949 4.87155 14.5161 5.0584 14.5136 5.25398C14.5111 5.44955 14.5851 5.63836 14.7198 5.78016L17.1892 8.25H13V9.75H17.1892L14.7198 12.2198C14.6473 12.2888 14.5892 12.3716 14.5492 12.4633C14.5091 12.555 14.4878 12.6539 14.4865 12.754C14.4852 12.8541 14.504 12.9534 14.5417 13.0461C14.5794 13.1389 14.6353 13.2231 14.7061 13.2939C14.7769 13.3647 14.8611 13.4206 14.9539 13.4583C15.0466 13.496 15.1459 13.5148 15.246 13.5135C15.3461 13.5122 15.445 13.4909 15.5367 13.4508C15.6284 13.4108 15.7112 13.3527 15.7802 13.2802L19.5302 9.53016C19.6707 9.38952 19.7497 9.19883 19.7497 9C19.7497 8.80117 19.6707 8.61048 19.5302 8.46984Z" fill="#4F4F4F"/>
</svg>
