<svg width="34" height="34" viewBox="0 0 34 34" fill="none" xmlns="http://www.w3.org/2000/svg">
<path d="M33.5 30.2556L33.1222 29.9222C32.0505 28.9673 31.1124 27.8723 30.3334 26.6667C29.4825 25.0028 28.9725 23.1858 28.8334 21.3222V15.8333C28.8288 15.1666 28.7694 14.5014 28.6556 13.8445C26.7735 13.4576 25.0829 12.4323 23.87 10.942C22.6572 9.45172 21.9966 7.58811 22 5.66667V4.96667C20.8399 4.39577 19.5935 4.02035 18.3111 3.85556V2.45556C18.3111 2.06216 18.1549 1.68487 17.8767 1.40669C17.5985 1.12851 17.2212 0.972229 16.8278 0.972229C16.4344 0.972229 16.0571 1.12851 15.7789 1.40669C15.5008 1.68487 15.3445 2.06216 15.3445 2.45556V3.91112C12.473 4.31618 9.84511 5.74639 7.94583 7.93771C6.04655 10.129 5.00417 12.9335 5.01114 15.8333V21.3222C4.87198 23.1858 4.362 25.0028 3.51114 26.6667C2.74545 27.8693 1.82247 28.9642 0.766694 29.9222L0.388916 30.2556V33.3889H33.5V30.2556Z" fill="#323232"/>
</svg>
