<svg width="22" height="22" viewBox="0 0 22 22" fill="none" xmlns="http://www.w3.org/2000/svg">
<path d="M9.49996 7.99999H12.5C12.78 7.99999 13 7.77999 13 7.49999V4.99999H14.79C15.24 4.99999 15.46 4.45999 15.14 4.14999L11.35 0.359991C11.15 0.159991 10.84 0.159991 10.64 0.359991L6.84996 4.14999C6.78086 4.22049 6.73417 4.30986 6.71578 4.40685C6.69739 4.50384 6.70812 4.6041 6.74661 4.695C6.78511 4.7859 6.84966 4.86337 6.93211 4.91764C7.01457 4.97192 7.11125 5.00057 7.20996 4.99999H8.99996V7.49999C8.99996 7.77999 9.21996 7.99999 9.49996 7.99999ZM7.49996 8.99999H4.99996V7.20999C4.99996 6.75999 4.45996 6.53999 4.14996 6.85999L0.359961 10.65C0.159961 10.85 0.159961 11.16 0.359961 11.36L4.14996 15.15C4.22046 15.2191 4.30983 15.2658 4.40682 15.2842C4.50381 15.3026 4.60407 15.2918 4.69497 15.2533C4.78587 15.2148 4.86334 15.1503 4.91761 15.0678C4.97189 14.9854 5.00054 14.8887 4.99996 14.79V13H7.49996C7.77996 13 7.99996 12.78 7.99996 12.5V9.49999C7.99996 9.21999 7.77996 8.99999 7.49996 8.99999ZM21.65 10.65L17.86 6.85999C17.7904 6.78854 17.7011 6.73947 17.6035 6.71906C17.5059 6.69865 17.4045 6.70782 17.3121 6.74541C17.2198 6.78299 17.1407 6.84728 17.0851 6.93004C17.0295 7.01281 16.9999 7.11028 17 7.20999V8.99999H14.5C14.22 8.99999 14 9.21999 14 9.49999V12.5C14 12.78 14.22 13 14.5 13H17V14.79C17 15.24 17.54 15.46 17.85 15.14L21.64 11.35C21.84 11.16 21.84 10.84 21.65 10.65ZM12.5 14H9.49996C9.21996 14 8.99996 14.22 8.99996 14.5V17H7.20996C6.75996 17 6.53996 17.54 6.85996 17.85L10.65 21.64C10.85 21.84 11.16 21.84 11.36 21.64L15.15 17.85C15.2185 17.7801 15.265 17.6916 15.2837 17.5956C15.3024 17.4995 15.2925 17.4001 15.2553 17.3096C15.218 17.2191 15.155 17.1415 15.0741 17.0865C14.9931 17.0314 14.8978 17.0014 14.8 17H13V14.5C13 14.22 12.78 14 12.5 14Z" fill="#2B2B2B"/>
</svg>
