<svg width="20" height="22" viewBox="0 0 20 22" fill="none" xmlns="http://www.w3.org/2000/svg">
<path d="M18.3999 8.6H19.5999V21.8H0.399902V8.6H1.5999V6.2C1.5999 2.888 4.2879 0.2 7.5999 0.2C8.4519 0.2 9.2679 0.38 9.9999 0.704C10.756 0.370552 11.5735 0.19888 12.3999 0.2C15.7119 0.2 18.3999 2.888 18.3999 6.2V8.6ZM3.9999 6.2V8.6H6.3999V6.2C6.3999 4.844 6.8679 3.608 7.6239 2.6H7.5999C5.6199 2.6 3.9999 4.22 3.9999 6.2ZM15.9999 8.6V6.2C15.9999 4.22 14.3799 2.6 12.3999 2.6H12.3759C13.165 3.63473 13.5947 4.89874 13.5999 6.2V8.6H15.9999ZM9.9999 3.536C9.2679 4.196 8.7999 5.144 8.7999 6.2V8.6H11.1999V6.2C11.1999 5.144 10.7319 4.196 9.9999 3.536Z" fill="white"/>
</svg>
