<svg width="19" height="21" viewBox="0 0 19 21" fill="none" xmlns="http://www.w3.org/2000/svg">
<path d="M17.0018 8.31061H18.1195V20.6056H0.23584V8.31061H1.35357V6.07515C1.35357 2.99022 3.85729 0.486501 6.94222 0.486501C7.73581 0.486501 8.49587 0.654161 9.17768 0.955948C9.88197 0.64536 10.6434 0.485457 11.4131 0.486501C14.4981 0.486501 17.0018 2.99022 17.0018 6.07515V8.31061ZM3.58903 6.07515V8.31061H5.82449V6.07515C5.82449 4.81212 6.26041 3.66086 6.96458 2.72196H6.94222C5.09797 2.72196 3.58903 4.2309 3.58903 6.07515ZM14.7663 8.31061V6.07515C14.7663 4.2309 13.2574 2.72196 11.4131 2.72196H11.3908C12.1258 3.68576 12.5261 4.86311 12.5309 6.07515V8.31061H14.7663ZM9.17768 3.59379C8.49587 4.20854 8.05995 5.09155 8.05995 6.07515V8.31061H10.2954V6.07515C10.2954 5.09155 9.8595 4.20854 9.17768 3.59379V3.59379Z" fill="#0055D4"/>
</svg>
