<svg width="31" height="34" viewBox="0 0 31 34" fill="none" xmlns="http://www.w3.org/2000/svg">
<path d="M18.9267 3.32482C18.9618 3.28059 19.0056 3.24398 19.0554 3.2172C19.1051 3.19042 19.1598 3.17404 19.2161 3.16905C19.2723 3.16406 19.329 3.17057 19.3827 3.18818C19.4364 3.20579 19.4859 3.23413 19.5283 3.27149L21.0633 4.62482L16.2317 10.6665H19.4333L22.9433 6.27982L25.6967 8.70816C25.7781 8.7801 25.8282 8.881 25.8363 8.98935C25.8444 9.09769 25.8098 9.20491 25.74 9.28816L24.59 10.6665H27.83C28.2313 10.079 28.4041 9.36497 28.3157 8.65896C28.2272 7.95294 27.8838 7.3036 27.35 6.83316L21.1833 1.39482C20.8858 1.13283 20.5381 0.934225 20.1613 0.811144C19.7844 0.688063 19.3865 0.643086 18.9917 0.678961C18.5969 0.714836 18.2136 0.83081 17.8651 1.0198C17.5167 1.20879 17.2104 1.46683 16.965 1.77816L9.96 10.6665H13.1433L18.9267 3.32482ZM3.75 9.83316C3.41848 9.83316 3.10054 9.96485 2.86612 10.1993C2.6317 10.4337 2.5 10.7516 2.5 11.0832C2.5 11.4147 2.6317 11.7326 2.86612 11.967C3.10054 12.2015 3.41848 12.3332 3.75 12.3332H25.4167C26.8533 12.3332 28.231 12.9038 29.2468 13.9197C30.2627 14.9355 30.8333 16.3132 30.8333 17.7498V28.5832C30.8333 30.0197 30.2627 31.3975 29.2468 32.4133C28.231 33.4291 26.8533 33.9998 25.4167 33.9998H5.41667C3.98008 33.9998 2.60233 33.4291 1.5865 32.4133C0.570683 31.3975 0 30.0197 0 28.5832V11.0832C0 10.0886 0.395088 9.13477 1.09835 8.43151C1.80161 7.72825 2.75544 7.33316 3.75 7.33316H10.95L8.96333 9.83316H3.75ZM20.8333 23.5832C20.8333 24.2732 21.3933 24.8332 22.0833 24.8332H25.4167C25.7482 24.8332 26.0661 24.7015 26.3006 24.467C26.535 24.2326 26.6667 23.9147 26.6667 23.5832C26.6667 23.2516 26.535 22.9337 26.3006 22.6993C26.0661 22.4649 25.7482 22.3332 25.4167 22.3332H22.0833C21.7518 22.3332 21.4339 22.4649 21.1994 22.6993C20.965 22.9337 20.8333 23.2516 20.8333 23.5832Z" fill="#0055D4"/>
</svg>
